<svg xmlns="http://www.w3.org/2000/svg" viewBox="0 0 35 48">
  <path fill="none" d="M17.51 36.87h15.35a.36.36 0 00.33-.33v-2.9a.3.3 0 00-.08-.25 34.44 34.44 0 01-3.48-3.48C27.55 26.58 31.7 10.66 22.08 9c-.17 0-.25-.17-.25-.34-1.16-5.22-2.66-4.64-4.23-4.64-1.58.09-3.15-.5-4.23 4.65 0 .16-.08.33-.25.33-9.62 1.66-5.47 17.59-7.55 20.9A27.54 27.54 0 012.1 33.4a.3.3 0 00-.09.25v2.9a.36.36 0 00.34.33zM11.7 37.37s.26 5.97 5.23 5.97 4.98-5.97 4.98-5.97" stroke-linecap="round" stroke-linejoin="round" stroke-miterlimit="10" stroke-width="3"/>
</svg>
