<svg xmlns="http://www.w3.org/2000/svg" viewBox="0 0 35 48">
  <g fill="none">
    <path d="M30.44 9.61a2.3 2.3 0 012.24 2.33v1.92a2.24 2.24 0 01-2.24 2.24H4.64a2.24 2.24 0 01-2.24-2.24v-1.92A2.3 2.3 0 014.65 9.6z" stroke-linecap="round" stroke-linejoin="round" stroke-miterlimit="10" stroke-width="3"/>
    <path d="M13.54 9.45c.16.24.48.08 4.56.08 4.57 0 4.89.16 5.05-.08.56-1.12-1.84-4.64-4.8-4.64-3.05.08-5.45 3.52-4.81 4.64zM30.36 43.82H4.8l.16-27.8h25.3zM17.94 23.15v14.34M24.27 23.15v14.34M11.62 23.15v14.34" stroke-linecap="round" stroke-linejoin="round" stroke-miterlimit="10" stroke-width="3"/>
  </g>
</svg>
