<svg xmlns="http://www.w3.org/2000/svg" viewBox="0 0 48 48">
  <path fill="none" d="M40.663 17.807l-1.58-5.288-1.58 5.288-5.288 1.58 5.288 1.58 1.58 5.288 1.58-5.288 5.288-1.58zM28.78 4.755L27.957 2l-.823 2.755-2.755.822 2.755.823.823 2.755.823-2.755 2.754-.823zM31.118 38.377c-3.291 5.471-7.686 7.112-12.654 7.106A16.472 16.472 0 011.999 29.001c0-10.3 9.572-17.806 19.727-15.935-4.515 3.662-6.536 7.743-6.533 12.389 0 8.07 7.933 14.441 15.925 12.922z" stroke="#313131" stroke-linejoin="round" stroke-width="3"/>
</svg>
