<svg viewBox="0 0 72 72" xmlns="http://www.w3.org/2000/svg">
  <g fill="#FCEA2B">
    <circle cx="36" cy="33" r="24"/>
    <path d="M47.39 67.62c.85-.67 2.14-1.72 2.22-1.75.9-.44 3.34-.03 9.42-3.5a89.33 89.33 0 005.85-3.96c2.85-2.16.63-3.86-1.62-2.76 1.22-.8 2.34-1.68 2.84-2.15 2.16-2.05.19-4.61-3.27-2.44l-.7.42c3.23-2.35.57-4.61-1.17-3.38-2.8 1.97-8.01 4.24-8.01 4.24-.44-.9.39-3 .4-3.88.02-2.24-1.96-2.14-2.68-.92-1.81 3.11-3.63 6.23-4.1 7.57-.32.94-.26 4.58-.26 4.58l-2.54 1.24M28.23 60.93l-2.54-1.24s.06-3.64-.27-4.58c-.46-1.34-2.28-4.46-4.1-7.57-.7-1.22-2.69-1.32-2.67.92.01.87.84 2.98.4 3.88 0 0-5.22-2.27-8.01-4.24-1.74-1.23-4.4 1.03-1.16 3.38l-.7-.42c-3.47-2.17-5.44.39-3.28 2.44.5.47 1.62 1.35 2.84 2.15-2.25-1.1-4.47.6-1.62 2.76.8.6 4.32 3.07 5.85 3.95 6.08 3.48 8.52 3.07 9.42 3.5.08.04 1.37 1.1 2.22 1.76"/>
  </g>
  <g fill="none" stroke="#000" stroke-linecap="round" stroke-width="2">
    <path stroke-linejoin="round" stroke-miterlimit="10" d="M56 44.36a23 23 0 10-39.89.2M29.6 55.1a23.01 23.01 0 0012.54.07"/>
    <path stroke-linejoin="round" d="M45.81 42.23a15.43 15.43 0 01-19.62 0"/>
    <path stroke-miterlimit="10" d="M31.7 30.4a4.73 4.73 0 00-8.64 0M48.94 30.4a4.73 4.73 0 00-8.63 0"/>
    <path stroke-linejoin="round" stroke-miterlimit="10" d="M15.83 54.8a48.75 48.75 0 01-5.95-3.32c-3.24-2.35-.58-4.61 1.16-3.38 2.8 1.97 8.01 4.24 8.01 4.24.44-.9-.39-3-.4-3.88-.02-2.24 1.96-2.14 2.68-.92 1.81 3.11 3.63 6.23 4.1 7.57.32.94.26 4.58.26 4.58l1.67.81M9.17 51.06c-3.46-2.17-5.43.39-3.27 2.44 1.09 1.04 4.2 3.18 8 4.95"/>
    <path stroke-linejoin="round" stroke-miterlimit="10" d="M8.74 55.65c-2.25-1.1-4.47.6-1.62 2.76.8.6 4.32 3.07 5.85 3.95 6.08 3.48 8.52 3.07 9.42 3.5.08.04.6.47 1.45 1.14M44.64 60.5l1.67-.81s-.06-3.64.27-4.58c.46-1.34 2.28-4.46 4.1-7.57.7-1.22 2.69-1.32 2.67.92-.01.87-.84 2.98-.4 3.88 0 0 5.22-2.27 8.01-4.24 1.74-1.23 4.4 1.03 1.16 3.38a48.75 48.75 0 01-5.95 3.32M58.1 58.45c3.8-1.77 6.91-3.91 8-4.95 2.16-2.05.19-4.61-3.27-2.44"/>
    <path stroke-linejoin="round" stroke-miterlimit="10" d="M48.16 67c.84-.67 1.37-1.1 1.45-1.13.9-.44 3.34-.03 9.42-3.5a89.33 89.33 0 005.85-3.96c2.85-2.16.63-3.86-1.62-2.76"/>
  </g>
</svg>
