<svg viewBox="0 0 72 72" xmlns="http://www.w3.org/2000/svg">
  <path fill="#FFF" d="M21.67 33.9L34.4 21.18l20.2 20.2-12.72 12.73zM13.98 56.78c.36.36.85.52 1.32.47 0 0 8.9.05 13.97-4.8l.18-.18a4.7 4.7 0 10-6.64-6.64l-8.83 8.83a1.64 1.64 0 000 2.32z"/>
  <path fill="#FFF" d="M22.15 53.02c.12.8-.36 1.98-1.31 2.98-.3.3-.6.56-.9.76M17.97 55.66a2.4 2.4 0 01-.8 1.49"/>
  <circle cx="34.43" cy="24.15" transform="rotate(-45 34.43 24.15)" fill="#5C9E31" r="2.33"/>
  <circle cx="52.08" cy="41.36" transform="rotate(-45 52.08 41.36)" fill="#5C9E31" r="2.33"/>
  <circle cx="24.32" cy="34.26" transform="rotate(-45 24.32 34.26)" fill="#5C9E31" r="2.33"/>
  <circle cx="41.58" cy="51.52" transform="rotate(-45 41.58 51.52)" fill="#5C9E31" r="2.33"/>
  <path fill="#5C9E31" d="M53.99 40.91L52.8 42.1 33.48 22.77l1.18-1.18zM42.24 52.18l-1.18 1.18-19.33-19.33 1.18-1.18z"/>
  <path fill="#5C9E31" d="M34.67 21.1l1.2 1.2-12.94 12.94-1.2-1.2zM53.5 39.93l1.2 1.2-12.94 12.94-1.2-1.2z"/>
  <ellipse cx="38.1" cy="37.47" rx="5.74" ry="9.28" transform="rotate(-45 38.1 37.47)" fill="#5C9E31"/>
  <path fill="#FFF" d="M47.42 35.2L35.7 46.91a.55.55 0 01-.14.1c-.2.1-.47.06-.65-.12l-6.22-6.22a.57.57 0 01-.12-.65l.1-.14 11.73-11.73a.55.55 0 01.14-.1c.2-.1.47-.06.65.12l6.22 6.22c.18.18.22.45.12.65a.55.55 0 01-.1.14zM57.19 13.57c.36.37.51.85.46 1.33 0 0 .05 8.9-4.8 13.96l-.18.18a4.7 4.7 0 11-6.63-6.64l8.83-8.83a1.64 1.64 0 012.32 0z"/>
  <path fill="#FFF" d="M53.43 21.74c.8.12 1.98-.36 2.98-1.31.3-.3.56-.6.76-.9M56.07 17.56a2.4 2.4 0 001.49-.8"/>
  <g fill="none" stroke="#000" stroke-linecap="round" stroke-miterlimit="10" stroke-width="2">
    <path d="M13.98 56.78c.36.36.85.52 1.32.47 0 0 8.9.05 13.97-4.8l.18-.18a4.7 4.7 0 10-6.64-6.64l-8.83 8.83a1.64 1.64 0 000 2.32zM17.24 57.14l-.01-.01"/>
    <path d="M22.15 53.02c.12.8-.36 1.98-1.31 2.98-.3.3-.6.56-.9.76M17.97 55.66a2.4 2.4 0 01-.8 1.49"/>
    <path stroke-linejoin="round" d="M41.06 53.36L22.44 34.75a1 1 0 010-1.42L33.68 22.1a1 1 0 011.42 0L53.7 40.7a1 1 0 010 1.42L42.47 53.36a1 1 0 01-1.41 0z"/>
    <path stroke-linejoin="round" d="M47.42 35.2L35.7 46.91a.55.55 0 01-.14.1c-.2.1-.47.06-.65-.12l-6.22-6.22a.57.57 0 01-.12-.65l.1-.14 11.73-11.73a.55.55 0 01.14-.1c.2-.1.47-.06.65.12l6.22 6.22c.18.18.22.45.12.65a.55.55 0 01-.1.14z"/>
    <path d="M57.19 13.57c.36.37.51.85.46 1.33 0 0 .05 8.9-4.8 13.96l-.18.18a4.7 4.7 0 11-6.63-6.64l8.83-8.83a1.64 1.64 0 012.32 0zM57.55 16.83l-.01-.01"/>
    <path d="M53.43 21.74c.8.12 1.98-.36 2.98-1.31.3-.3.56-.6.76-.9M56.07 17.56a2.4 2.4 0 001.49-.8"/>
  </g>
</svg>
