<svg viewBox="0 0 72 72" xmlns="http://www.w3.org/2000/svg">
  <path fill="#D0CFCE" d="M51.9 18.6v23.76H15.02L11.35 18.6z"/>
  <circle cx="50.14" cy="58.46" r="2.38" fill="#D0CFCE"/>
  <circle cx="14.03" cy="58.46" r="2.38" fill="#D0CFCE"/>
  <path fill="#9B9B9A" d="M45.66 23.64v.79M45.66 36.75v.79M40.29 23.64v.79M40.29 36.75v.79M34.91 23.64v.79M34.91 36.75v.79M29.54 23.64v.79M29.54 36.75v.79M24.16 23.64v.79M24.16 36.75v.79M18.78 23.64v.79M18.78 36.75v.79M45.66 30v.79M40.29 30v.79M34.91 30v.79M29.54 30v.79M24.16 30v.79M18.78 30v.79"/>
  <g fill="none" stroke="#000" stroke-linecap="round" stroke-linejoin="round" stroke-miterlimit="10" stroke-width="2">
    <path d="M51.9 18.6v23.76H15.02L11.35 18.6zM51.9 18.6l3.6-7.52h5.15M14.03 51.86h37.88"/>
    <circle cx="50.14" cy="58.46" r="2.38"/>
    <circle cx="14.03" cy="58.46" r="2.38"/>
    <path d="M51.9 42.36s4.84.35 4.84 4.78c0 5.13-4.58 4.72-4.58 4.72M45.66 23.64v.79M45.66 36.75v.79M40.29 23.64v.79M40.29 36.75v.79M34.91 23.64v.79M34.91 36.75v.79M29.54 23.64v.79M29.54 36.75v.79M24.16 23.64v.79M24.16 36.75v.79M18.78 23.64v.79M18.78 36.75v.79M45.66 30v.79M40.29 30v.79M34.91 30v.79M29.54 30v.79M24.16 30v.79M18.78 30v.79"/>
  </g>
</svg>
